<svg width="25" height="24" viewBox="0 0 25 24" fill="none" xmlns="http://www.w3.org/2000/svg">
<path d="M4.26504 17.7V11.7C4.26504 11.36 4.38004 11.075 4.61004 10.845C4.84004 10.615 5.12504 10.5 5.46504 10.5C5.80504 10.5 6.09004 10.615 6.32004 10.845C6.55004 11.075 6.66504 11.36 6.66504 11.7V17.7C6.66504 18.04 6.55004 18.325 6.32004 18.555C6.09004 18.785 5.80504 18.9 5.46504 18.9C5.12504 18.9 4.84004 18.785 4.61004 18.555C4.38004 18.325 4.26504 18.04 4.26504 17.7ZM11.465 17.7V11.7C11.465 11.36 11.58 11.075 11.81 10.845C12.04 10.615 12.325 10.5 12.665 10.5C13.005 10.5 13.29 10.615 13.52 10.845C13.75 11.075 13.865 11.36 13.865 11.7V17.7C13.865 18.04 13.75 18.325 13.52 18.555C13.29 18.785 13.005 18.9 12.665 18.9C12.325 18.9 12.04 18.785 11.81 18.555C11.58 18.325 11.465 18.04 11.465 17.7ZM1.86504 23.7C1.52504 23.7 1.24004 23.585 1.01004 23.355C0.780039 23.125 0.665039 22.84 0.665039 22.5C0.665039 22.16 0.780039 21.875 1.01004 21.645C1.24004 21.415 1.52504 21.3 1.86504 21.3H23.465C23.805 21.3 24.09 21.415 24.32 21.645C24.55 21.875 24.665 22.16 24.665 22.5C24.665 22.84 24.55 23.125 24.32 23.355C24.09 23.585 23.805 23.7 23.465 23.7H1.86504ZM18.665 17.7V11.7C18.665 11.36 18.78 11.075 19.01 10.845C19.24 10.615 19.525 10.5 19.865 10.5C20.205 10.5 20.49 10.615 20.72 10.845C20.95 11.075 21.065 11.36 21.065 11.7V17.7C21.065 18.04 20.95 18.325 20.72 18.555C20.49 18.785 20.205 18.9 19.865 18.9C19.525 18.9 19.24 18.785 19.01 18.555C18.78 18.325 18.665 18.04 18.665 17.7ZM23.465 8.1H1.74504C1.44504 8.1 1.19004 7.995 0.980039 7.785C0.770039 7.575 0.665039 7.32 0.665039 7.02V6.36C0.665039 6.14 0.720039 5.95 0.830039 5.79C0.940039 5.63 1.08504 5.5 1.26504 5.4L11.585 0.24C11.925 0.08 12.285 0 12.665 0C13.045 0 13.405 0.08 13.745 0.24L24.005 5.37C24.225 5.47 24.39 5.62 24.5 5.82C24.61 6.02 24.665 6.23 24.665 6.45V6.9C24.665 7.24 24.55 7.525 24.32 7.755C24.09 7.985 23.805 8.1 23.465 8.1ZM6.00504 5.7H19.325L12.665 2.4L6.00504 5.7Z" fill="#555555"/>
</svg>
