<svg width="271" height="359" viewBox="0 0 271 359" fill="none" xmlns="http://www.w3.org/2000/svg">
<mask id="mask0_2_2004" style="mask-type:luminance" maskUnits="userSpaceOnUse" x="0" y="0" width="271" height="359">
<path d="M267 0H4.5C2.29086 0 0.5 1.79087 0.5 4V355C0.5 357.209 2.29086 359 4.5 359H267C269.209 359 271 357.209 271 355V4C271 1.79086 269.209 0 267 0Z" fill="white"/>
</mask>
<g mask="url(#mask0_2_2004)">
<path d="M208.983 -129.419L-115.199 80.8856C-117.052 82.0878 -117.863 84.7146 -117.011 86.7525L55.8004 499.741C56.6531 501.779 58.8468 502.457 60.7001 501.254L384.882 290.949C386.736 289.747 387.547 287.12 386.694 285.082L213.883 -127.906C213.03 -129.944 210.837 -130.622 208.983 -129.419Z" fill="url(#paint0_linear_2_2004)"/>
</g>
<path d="M237.888 25.6992H74.9054C73.6632 25.6992 72.6562 26.7062 72.6562 27.9484C72.6562 29.1906 73.6632 30.1976 74.9054 30.1976H237.888C239.131 30.1976 240.138 29.1906 240.138 27.9484C240.138 26.7062 239.131 25.6992 237.888 25.6992Z" fill="#B8A1D6"/>
<path d="M239.116 215.637H31.7272C30.5176 215.637 29.5371 216.617 29.5371 217.827C29.5371 219.036 30.5176 220.017 31.7272 220.017H239.116C240.325 220.017 241.306 219.036 241.306 217.827C241.306 216.617 240.325 215.637 239.116 215.637Z" fill="#B8A1D6"/>
<path d="M239.116 282.793H31.7272C30.5176 282.793 29.5371 283.773 29.5371 284.983C29.5371 286.193 30.5176 287.173 31.7272 287.173H239.116C240.325 287.173 241.306 286.193 241.306 284.983C241.306 283.773 240.325 282.793 239.116 282.793Z" fill="#B8A1D6"/>
<path d="M59.186 25.6992H35.3652C33.1561 25.6992 31.3652 27.4901 31.3652 29.6992V56.7358C31.3652 58.9449 33.1561 60.7358 35.3652 60.7358H59.186C61.3951 60.7358 63.186 58.9449 63.186 56.7358V29.6992C63.186 27.4901 61.3951 25.6992 59.186 25.6992Z" fill="#B8A1D6"/>
<path d="M237.308 98.8359H35.8789C33.6698 98.8359 31.8789 100.627 31.8789 102.836V189.738C31.8789 191.947 33.6698 193.738 35.8789 193.738H237.308C239.517 193.738 241.308 191.947 241.308 189.738V102.836C241.308 100.627 239.517 98.8359 237.308 98.8359Z" fill="#B8A1D6"/>
<path d="M237.889 41.457H74.9054C73.6632 41.457 72.6562 42.464 72.6562 43.7062C72.6562 44.9484 73.6632 45.9554 74.9054 45.9554H237.889C239.131 45.9554 240.138 44.9484 240.138 43.7062C240.138 42.464 239.131 41.457 237.889 41.457Z" fill="#B8A1D6"/>
<path d="M239.116 231.695H31.7272C30.5176 231.695 29.5371 232.676 29.5371 233.885C29.5371 235.095 30.5176 236.075 31.7272 236.075H239.116C240.325 236.075 241.306 235.095 241.306 233.885C241.306 232.676 240.325 231.695 239.116 231.695Z" fill="#B8A1D6"/>
<path d="M239.116 298.859H31.7272C30.5176 298.859 29.5371 299.84 29.5371 301.049C29.5371 302.259 30.5176 303.239 31.7272 303.239H239.116C240.325 303.239 241.306 302.259 241.306 301.049C241.306 299.84 240.325 298.859 239.116 298.859Z" fill="#B8A1D6"/>
<path d="M237.886 57.2109H74.9077C73.6643 57.2109 72.6562 58.219 72.6562 59.4624C72.6562 60.7058 73.6643 61.7139 74.9077 61.7139H237.886C239.13 61.7139 240.138 60.7058 240.138 59.4624C240.138 58.219 239.13 57.2109 237.886 57.2109Z" fill="#B8A1D6"/>
<path d="M239.116 247.754H31.7272C30.5176 247.754 29.5371 248.734 29.5371 249.944C29.5371 251.153 30.5176 252.134 31.7272 252.134H239.116C240.325 252.134 241.306 251.153 241.306 249.944C241.306 248.734 240.325 247.754 239.116 247.754Z" fill="#B8A1D6"/>
<path d="M239.116 314.922H31.7272C30.5176 314.922 29.5371 315.902 29.5371 317.112C29.5371 318.321 30.5176 319.302 31.7272 319.302H239.116C240.325 319.302 241.306 318.321 241.306 317.112C241.306 315.902 240.325 314.922 239.116 314.922Z" fill="#B8A1D6"/>
<path d="M154.148 72.9688H74.9054C73.6632 72.9688 72.6562 73.9757 72.6562 75.2179C72.6562 76.4601 73.6632 77.4671 74.9054 77.4671H154.148C155.39 77.4671 156.397 76.4601 156.397 75.2179C156.397 73.9757 155.39 72.9688 154.148 72.9688Z" fill="#B8A1D6"/>
<path d="M111.029 262.906H31.7863C30.5441 262.906 29.5371 263.913 29.5371 265.155C29.5371 266.398 30.5441 267.405 31.7863 267.405H111.029C112.271 267.405 113.278 266.398 113.278 265.155C113.278 263.913 112.271 262.906 111.029 262.906Z" fill="#B8A1D6"/>
<path d="M132.646 329.52H31.7272C30.5176 329.52 29.5371 330.5 29.5371 331.71C29.5371 332.919 30.5176 333.9 31.7272 333.9H132.646C133.856 333.9 134.836 332.919 134.836 331.71C134.836 330.5 133.856 329.52 132.646 329.52Z" fill="#B8A1D6"/>
<defs>
<linearGradient id="paint0_linear_2_2004" x1="184.968" y1="309.062" x2="-49.583" y2="-52.4944" gradientUnits="userSpaceOnUse">
<stop stop-color="white"/>
<stop offset="1" stop-color="#F1EAFF"/>
</linearGradient>
</defs>
</svg>
