<svg width="25" height="25" viewBox="0 0 25 25" fill="none" xmlns="http://www.w3.org/2000/svg">
<mask id="mask0_104_1189" style="mask-type:alpha" maskUnits="userSpaceOnUse" x="0" y="0" width="25" height="25">
<rect x="0.5" y="0.164062" width="24" height="24" fill="#D9D9D9"/>
</mask>
<g mask="url(#mask0_104_1189)">
<path d="M7.8 21.1641C7.16667 21.1641 6.625 20.9349 6.175 20.4766C5.725 20.0182 5.5 19.4724 5.5 18.8391V9.56406L3.675 5.16406H2.5C2.21667 5.16406 1.97917 5.06823 1.7875 4.87656C1.59583 4.6849 1.5 4.4474 1.5 4.16406C1.5 3.88073 1.59583 3.64323 1.7875 3.45156C1.97917 3.2599 2.21667 3.16406 2.5 3.16406H4.35C4.55 3.16406 4.73333 3.2224 4.9 3.33906C5.06667 3.45573 5.19167 3.60573 5.275 3.78906L6.675 7.16406H21.45C21.8333 7.16406 22.125 7.3224 22.325 7.63906C22.525 7.95573 22.5333 8.28073 22.35 8.61406L19.5 14.1891C20.35 14.3224 21.0625 14.7141 21.6375 15.3641C22.2125 16.0141 22.5 16.7807 22.5 17.6641C22.5 18.6307 22.1625 19.4557 21.4875 20.1391C20.8125 20.8224 19.9917 21.1641 19.025 21.1641C18.0417 21.1641 17.2125 20.8224 16.5375 20.1391C15.8625 19.4557 15.525 18.6307 15.525 17.6641C15.525 17.3307 15.5667 17.0224 15.65 16.7391C15.7333 16.4557 15.85 16.1807 16 15.9141L12.725 15.6141L9.725 20.1141C9.50833 20.4474 9.22917 20.7057 8.8875 20.8891C8.54583 21.0724 8.18333 21.1641 7.8 21.1641ZM17.35 14.0391L19.825 9.16406H7.5L8.75 12.1641C8.88333 12.4974 9.09583 12.7766 9.3875 13.0016C9.67917 13.2266 10.0167 13.3557 10.4 13.3891L17.35 14.0391ZM7.825 19.1391C7.85833 19.1391 7.93333 19.0974 8.05 19.0141L10.475 15.4141C9.65833 15.3307 9.01667 15.1349 8.55 14.8266C8.08333 14.5182 7.73333 14.1974 7.5 13.8641V18.8641C7.5 18.9474 7.53333 19.0141 7.6 19.0641C7.66667 19.1141 7.74167 19.1391 7.825 19.1391ZM19 19.1641C19.4333 19.1641 19.7917 19.0182 20.075 18.7266C20.3583 18.4349 20.5 18.0807 20.5 17.6641C20.5 17.2307 20.3583 16.8724 20.075 16.5891C19.7917 16.3057 19.4333 16.1641 19 16.1641C18.5833 16.1641 18.2292 16.3057 17.9375 16.5891C17.6458 16.8724 17.5 17.2307 17.5 17.6641C17.5 18.0807 17.6458 18.4349 17.9375 18.7266C18.2292 19.0182 18.5833 19.1641 19 19.1641Z" fill="#555555"/>
</g>
</svg>
