<svg width="24" height="25" viewBox="0 0 24 25" fill="none" xmlns="http://www.w3.org/2000/svg">
<mask id="mask0_104_1201" style="mask-type:alpha" maskUnits="userSpaceOnUse" x="0" y="0" width="24" height="25">
<rect y="0.164062" width="24" height="24" fill="#D9D9D9"/>
</mask>
<g mask="url(#mask0_104_1201)">
<path d="M6.0502 17.9375C5.71686 17.7542 5.45853 17.5083 5.2752 17.2C5.09186 16.8917 5.0002 16.5458 5.0002 16.1625V11.3625L2.6002 10.0375C2.41686 9.9375 2.28353 9.8125 2.2002 9.6625C2.11686 9.5125 2.0752 9.34583 2.0752 9.1625C2.0752 8.97917 2.11686 8.8125 2.2002 8.6625C2.28353 8.5125 2.41686 8.3875 2.6002 8.2875L11.0502 3.6875C11.2002 3.60417 11.3544 3.54167 11.5127 3.5C11.671 3.45833 11.8335 3.4375 12.0002 3.4375C12.1669 3.4375 12.3294 3.45833 12.4877 3.5C12.646 3.54167 12.8002 3.60417 12.9502 3.6875L22.4752 8.8875C22.6419 8.97083 22.771 9.09167 22.8627 9.25C22.9544 9.40833 23.0002 9.57917 23.0002 9.7625V16.1625C23.0002 16.4458 22.9044 16.6833 22.7127 16.875C22.521 17.0667 22.2835 17.1625 22.0002 17.1625C21.7169 17.1625 21.4794 17.0667 21.2877 16.875C21.096 16.6833 21.0002 16.4458 21.0002 16.1625V10.2625L19.0002 11.3625V16.1625C19.0002 16.5458 18.9085 16.8917 18.7252 17.2C18.5419 17.5083 18.2835 17.7542 17.9502 17.9375L12.9502 20.6375C12.8002 20.7208 12.646 20.7833 12.4877 20.825C12.3294 20.8667 12.1669 20.8875 12.0002 20.8875C11.8335 20.8875 11.671 20.8667 11.5127 20.825C11.3544 20.7833 11.2002 20.7208 11.0502 20.6375L6.0502 17.9375ZM12.0002 12.8625L18.8502 9.1625L12.0002 5.4625L5.1502 9.1625L12.0002 12.8625ZM12.0002 18.8875L17.0002 16.1875V12.4125L12.9752 14.6375C12.8252 14.7208 12.6669 14.7833 12.5002 14.825C12.3335 14.8667 12.1669 14.8875 12.0002 14.8875C11.8335 14.8875 11.6669 14.8667 11.5002 14.825C11.3335 14.7833 11.1752 14.7208 11.0252 14.6375L7.0002 12.4125V16.1875L12.0002 18.8875Z" fill="#555555"/>
</g>
</svg>
