<svg width="28" height="35" viewBox="0 0 28 35" fill="none" xmlns="http://www.w3.org/2000/svg">
<g clip-path="url(#clip0_2_2048)">
<path d="M13.5618 2.54371C12.8115 2.54371 12.0635 2.62501 11.3364 2.78065C11.1877 2.64592 10.9949 2.56229 10.7789 2.56229C10.3189 2.56229 9.94727 2.93629 9.94727 3.39391C9.94727 3.85153 10.3213 4.22553 10.7789 4.22553C11.0716 4.22553 11.3294 4.07221 11.4758 3.84224C12.1262 3.69822 12.7906 3.61691 13.4619 3.60995H13.5595C18.879 3.60995 23.209 7.99337 23.209 13.3803V21.283C23.209 22.3887 23.1231 23.4921 22.9651 24.5746C22.7003 24.714 22.5191 24.9881 22.5191 25.3064C22.5191 25.764 22.8931 26.138 23.3507 26.138C23.8083 26.138 24.1823 25.764 24.1823 25.3064C24.1823 25.1182 24.1173 24.9463 24.0104 24.8069C24.1823 23.6524 24.2753 22.47 24.2753 21.283V13.2525C24.2753 10.3953 23.1602 7.70532 21.1323 5.68202C19.1067 3.65408 16.419 2.53906 13.5595 2.53906L13.5618 2.54371Z" fill="#B881FF"/>
<path d="M9.88222 27.0281C10.974 25.3114 11.5524 23.3253 11.5524 21.2881V13.2599C11.5524 12.1519 12.4537 11.2482 13.5618 11.2482C14.6698 11.2482 15.5735 12.1496 15.5735 13.2599V21.3787C15.5642 22.8677 15.3342 24.3335 14.8928 25.7342C14.5467 25.8364 14.2935 26.1523 14.2935 26.5287C14.2935 26.9886 14.6675 27.3603 15.1251 27.3603C15.5828 27.3603 15.9568 26.9863 15.9568 26.5287C15.9568 26.3986 15.9242 26.2755 15.8685 26.164C15.8731 26.1523 15.8801 26.1454 15.8847 26.1338C16.3888 24.5727 16.642 22.942 16.642 21.2881V13.2599C16.642 11.5618 15.2599 10.1797 13.5618 10.1797C11.8637 10.1797 10.4815 11.5618 10.4815 13.2599V21.3694C10.4513 24.9978 8.3421 28.3313 5.09461 29.9364C4.96917 29.8621 4.82515 29.8156 4.66951 29.8156C4.20956 29.8156 3.83789 30.1896 3.83789 30.6473C3.83789 31.1049 4.21189 31.4789 4.66951 31.4789C5.01795 31.4789 5.31529 31.2629 5.43841 30.9585C5.47558 30.94 5.5081 30.926 5.54526 30.9074C7.31768 30.0363 8.81599 28.6937 9.8799 27.0258L9.88222 27.0281Z" fill="#B881FF"/>
<path d="M14.0952 21.2871V19.6517C14.2787 19.4984 14.3971 19.2731 14.3971 19.0152C14.3971 18.5553 14.0231 18.1836 13.5655 18.1836C13.1079 18.1836 12.7339 18.5576 12.7339 19.0152C12.7339 19.2684 12.85 19.4914 13.0266 19.6447V21.2871C13.0266 25.4614 10.836 29.3895 7.29818 31.6149C7.22153 31.5917 7.14022 31.5754 7.05427 31.5754C6.59433 31.5754 6.22266 31.9494 6.22266 32.4071C6.22266 32.8647 6.59665 33.2387 7.05427 33.2387C7.47473 33.2387 7.81853 32.9251 7.87428 32.5209C7.88589 32.5139 7.89983 32.5046 7.91145 32.4977C11.7838 30.0446 14.0952 25.854 14.0952 21.2894V21.2871Z" fill="#B881FF"/>
<path d="M8.95351 22.1567C9.17651 22.008 9.32518 21.7525 9.32518 21.4644C9.32518 21.0045 8.95119 20.6328 8.49357 20.6328C8.03594 20.6328 7.66195 21.0068 7.66195 21.4644C7.66195 21.6874 7.75022 21.8895 7.89424 22.0382C7.60387 24.763 5.77106 27.0883 3.17167 27.9943C3.14844 28.0012 3.12754 28.0082 3.10431 28.0175C3.01139 27.9803 2.90918 27.9594 2.80232 27.9594C2.34238 27.9594 1.9707 28.3334 1.9707 28.791C1.9707 29.2487 2.3447 29.6227 2.80232 29.6227C3.19955 29.6227 3.53173 29.3439 3.61303 28.9722C3.63859 28.9629 3.66182 28.956 3.68737 28.9467C6.58177 27.8642 8.62597 25.216 8.95583 22.1567H8.95351Z" fill="#B881FF"/>
<path d="M19.185 21.2872V13.2567C19.185 11.7584 18.5997 10.346 17.5357 9.28211C16.4718 8.2182 15.0595 7.63281 13.5588 7.63281C10.4577 7.63281 7.93496 10.1555 7.93496 13.2567V18.3602C7.73751 18.5135 7.60742 18.7482 7.60742 19.0176C7.60742 19.4776 7.98142 19.8492 8.43904 19.8492C8.89666 19.8492 9.27066 19.4753 9.27066 19.0176C9.27066 18.776 9.16613 18.5623 9.0012 18.409V13.259C9.0012 10.7479 11.0454 8.7037 13.5565 8.7037C13.5914 8.7037 13.6285 8.7037 13.6657 8.7037C16.1187 8.76177 18.1142 10.8431 18.1142 13.3473V21.2895C18.1142 25.8239 16.3673 30.0935 13.1988 33.3433C12.7714 33.3758 12.4299 33.7312 12.4299 34.168C12.4299 34.6279 12.8039 34.9996 13.2615 34.9996C13.7191 34.9996 14.0931 34.6256 14.0931 34.168C14.0931 34.1076 14.0861 34.0518 14.0745 33.9937C14.1117 33.9543 14.1512 33.9148 14.1884 33.8753C17.408 30.4652 19.1804 25.9958 19.1804 21.2872H19.185Z" fill="#B881FF"/>
<path d="M21.7313 21.2865V16.176C21.9102 16.0227 22.0264 15.7997 22.0264 15.5465C22.0264 15.0865 21.6524 14.7148 21.1947 14.7148C20.7371 14.7148 20.3631 15.0888 20.3631 15.5465C20.3631 15.802 20.4816 16.0273 20.6628 16.1806V21.2865C20.6628 25.4725 19.3712 29.461 16.9321 32.8455C16.5418 32.9129 16.2422 33.252 16.2422 33.6632C16.2422 34.1232 16.6162 34.4948 17.0738 34.4948C17.5314 34.4948 17.9054 34.1208 17.9054 33.6632C17.9054 33.5749 17.8868 33.4913 17.8613 33.4123C17.9426 33.2962 18.0239 33.1824 18.1006 33.0709C20.4746 29.6073 21.729 25.5329 21.729 21.2865H21.7313Z" fill="#B881FF"/>
<path d="M26.7458 22.6371C26.7922 22.1888 26.8201 21.7358 26.8201 21.2851V13.257C26.8201 11.4521 26.46 9.70287 25.7539 8.05357C25.7794 7.97227 25.798 7.88864 25.798 7.80037C25.798 7.34042 25.424 6.96875 24.9664 6.96875C24.5088 6.96875 24.1348 7.34275 24.1348 7.80037C24.1348 8.21153 24.4367 8.55301 24.8293 8.61805C25.4403 10.0908 25.7515 11.6495 25.7515 13.257V21.3688C25.7515 21.7869 25.7376 22.2074 25.7144 22.6208C25.5192 22.7742 25.3892 23.0088 25.3892 23.2759C25.3892 23.7335 25.7632 24.1075 26.2208 24.1075C26.6784 24.1075 27.0524 23.7335 27.0524 23.2759C27.0524 23.0181 26.9316 22.7881 26.7458 22.6348V22.6371Z" fill="#B881FF"/>
<path d="M0.837478 13.0922C1.29742 13.0922 1.6691 12.7182 1.6691 12.2606C1.6691 12.0562 1.59244 11.8703 1.46932 11.7263C2.23125 5.71448 7.45558 1.06856 13.5626 1.06856C17.277 1.06856 20.8265 2.80613 23.1309 5.72377C23.1286 5.75397 23.1216 5.78416 23.1216 5.81436C23.1216 6.27431 23.4956 6.64598 23.9532 6.64598C24.4108 6.64598 24.7848 6.27199 24.7848 5.81436C24.7848 5.35674 24.4108 4.98274 23.9532 4.98274C23.9393 4.98274 23.9253 4.98739 23.9091 4.98739C21.4026 1.85837 17.5697 0 13.5626 0C10.2315 0 7.04442 1.24511 4.58905 3.50534C2.28003 5.63085 0.811925 8.4695 0.4147 11.5474C0.170789 11.6938 0.00585938 11.9563 0.00585938 12.2606C0.00585938 12.7205 0.379855 13.0922 0.837478 13.0922Z" fill="#B881FF"/>
<path d="M0.00696887 21.4654C0.00696887 21.9253 0.380965 22.297 0.838588 22.297C1.29621 22.297 1.67021 21.923 1.67021 21.4654C1.67021 21.2099 1.55174 20.9845 1.37054 20.8312V15.219C1.54941 15.0656 1.66324 14.8426 1.66324 14.5894C1.66324 14.1295 1.28924 13.7578 0.831619 13.7578C0.373996 13.7578 0 14.1318 0 14.5894C0 14.845 0.118471 15.0726 0.301984 15.2259V20.8335C0.123117 20.9869 0.00696887 21.2099 0.00696887 21.4631V21.4654Z" fill="#B881FF"/>
<path d="M1.50511 24.2947C2.90353 23.9858 3.91634 22.7244 3.91634 21.2888V13.2607C3.91634 9.92256 5.59817 6.88878 8.42288 5.10707C8.45076 5.10939 8.47631 5.11636 8.50418 5.11636C8.96413 5.11636 9.3358 4.74237 9.3358 4.28474C9.3358 3.82712 8.96181 3.45312 8.50418 3.45312C8.04656 3.45312 7.67257 3.82712 7.67257 4.28474C7.67257 4.29636 7.67489 4.30797 7.67489 4.31959C4.64575 6.31501 2.84546 9.62522 2.84546 13.263V21.3422C2.82455 22.1878 2.25078 22.9427 1.45633 23.2052C1.30534 23.0473 1.09395 22.9474 0.857009 22.9474C0.397064 22.9474 0.0253906 23.3214 0.0253906 23.779C0.0253906 24.2366 0.399387 24.6106 0.857009 24.6106C1.1195 24.6106 1.3518 24.4852 1.50279 24.297L1.50511 24.2947Z" fill="#B881FF"/>
<path d="M2.20467 26.7405C2.24648 26.7289 2.28597 26.722 2.33011 26.7103C4.76224 26.039 6.46265 23.809 6.46265 21.2862V13.2581C6.46265 9.3416 9.64742 6.15682 13.5616 6.15682C17.118 6.15682 20.1495 8.84681 20.6025 12.3405C20.4468 12.4915 20.347 12.7029 20.347 12.9375C20.347 13.3975 20.721 13.7692 21.1786 13.7692C21.6362 13.7692 22.0102 13.3952 22.0102 12.9375C22.0102 12.6634 21.8755 12.4218 21.6687 12.2685C21.4504 10.4682 20.6304 8.77944 19.3341 7.48323C17.7894 5.93846 15.7382 5.08594 13.5593 5.08594C9.05507 5.08594 5.38944 8.75156 5.38944 13.2558V21.3536C5.35924 23.4025 3.95385 25.1888 1.96773 25.6999C1.91662 25.7138 1.86319 25.7254 1.81209 25.7347C1.69362 25.672 1.56353 25.6325 1.41951 25.6325C0.959564 25.6325 0.587891 26.0065 0.587891 26.4641C0.587891 26.9217 0.961887 27.2957 1.41951 27.2957C1.78189 27.2957 2.0862 27.0634 2.20002 26.7382L2.20467 26.7405Z" fill="#B881FF"/>
<path d="M22.7931 26.8789C22.3332 26.8789 21.9615 27.2529 21.9615 27.7105C21.9615 27.8894 22.0196 28.0543 22.1171 28.1914C21.8337 29.0625 21.4923 29.922 21.102 30.7559C20.7977 30.879 20.584 31.1787 20.584 31.5248C20.584 31.9848 20.958 32.3564 21.4156 32.3564C21.8732 32.3564 22.2472 31.9824 22.2472 31.5248C22.2472 31.3738 22.2031 31.2345 22.1334 31.1137C22.2728 30.8117 22.4075 30.5074 22.5329 30.2031C22.7676 29.6293 22.9766 29.0416 23.1671 28.4515C23.4389 28.3145 23.6271 28.0357 23.6271 27.7105C23.6271 27.2529 23.2531 26.8789 22.7954 26.8789H22.7931Z" fill="#B881FF"/>
<path d="M15.2579 28.4293C15.2579 27.9693 14.8839 27.5977 14.4263 27.5977C13.9687 27.5977 13.5947 27.9717 13.5947 28.4293C13.5947 28.4966 13.6063 28.5617 13.6202 28.6267C12.6911 30.2412 11.4692 31.6512 9.98714 32.829C9.95927 32.8266 9.93371 32.8197 9.90584 32.8197C9.44589 32.8197 9.07422 33.1937 9.07422 33.6513C9.07422 34.1089 9.44821 34.4829 9.90584 34.4829C10.3635 34.4829 10.7375 34.1089 10.7375 33.6513C10.7375 33.635 10.7328 33.6211 10.7328 33.6048C10.7514 33.5886 10.77 33.577 10.7886 33.5607C12.2822 32.3481 13.518 30.8986 14.4797 29.2562C14.9118 29.2284 15.2556 28.8706 15.2556 28.4293H15.2579Z" fill="#B881FF"/>
<path d="M12.7344 16.4837C12.7344 16.9436 13.1084 17.3153 13.566 17.3153C14.0236 17.3153 14.3976 16.9413 14.3976 16.4837C14.3976 16.2282 14.2791 16.0005 14.0956 15.8472V13.6869C14.2791 13.5335 14.3976 13.3082 14.3976 13.0504C14.3976 12.5904 14.0236 12.2188 13.566 12.2188C13.1084 12.2188 12.7344 12.5927 12.7344 13.0504C12.7344 13.3036 12.8505 13.5266 13.0271 13.6799V15.8542C12.8482 16.0075 12.7344 16.2305 12.7344 16.4837Z" fill="#B881FF"/>
</g>
<defs>
<clipPath id="clip0_2_2048">
<rect width="27.0532" height="35" fill="white"/>
</clipPath>
</defs>
</svg>
