<svg width="25" height="25" viewBox="0 0 25 25" fill="none" xmlns="http://www.w3.org/2000/svg">
<mask id="mask0_104_991" style="mask-type:alpha" maskUnits="userSpaceOnUse" x="0" y="0" width="25" height="25">
<rect x="0.5" y="0.164062" width="24" height="24" fill="#D9D9D9"/>
</mask>
<g mask="url(#mask0_104_991)">
<path d="M7.5 9.16406V3.16406C7.5 2.88073 7.59583 2.64323 7.7875 2.45156C7.97917 2.2599 8.21667 2.16406 8.5 2.16406C8.78333 2.16406 9.02083 2.2599 9.2125 2.45156C9.40417 2.64323 9.5 2.88073 9.5 3.16406V9.16406H10.5V3.16406C10.5 2.88073 10.5958 2.64323 10.7875 2.45156C10.9792 2.2599 11.2167 2.16406 11.5 2.16406C11.7833 2.16406 12.0208 2.2599 12.2125 2.45156C12.4042 2.64323 12.5 2.88073 12.5 3.16406V9.16406C12.5 10.0974 12.2125 10.9141 11.6375 11.6141C11.0625 12.3141 10.35 12.7807 9.5 13.0141V21.1641C9.5 21.4474 9.40417 21.6849 9.2125 21.8766C9.02083 22.0682 8.78333 22.1641 8.5 22.1641C8.21667 22.1641 7.97917 22.0682 7.7875 21.8766C7.59583 21.6849 7.5 21.4474 7.5 21.1641V13.0141C6.65 12.7807 5.9375 12.3141 5.3625 11.6141C4.7875 10.9141 4.5 10.0974 4.5 9.16406V3.16406C4.5 2.88073 4.59583 2.64323 4.7875 2.45156C4.97917 2.2599 5.21667 2.16406 5.5 2.16406C5.78333 2.16406 6.02083 2.2599 6.2125 2.45156C6.40417 2.64323 6.5 2.88073 6.5 3.16406V9.16406H7.5ZM17.5 14.1641H15.5C15.2167 14.1641 14.9792 14.0682 14.7875 13.8766C14.5958 13.6849 14.5 13.4474 14.5 13.1641V7.16406C14.5 5.9974 14.9292 4.8724 15.7875 3.78906C16.6458 2.70573 17.5333 2.16406 18.45 2.16406C18.75 2.16406 19 2.28073 19.2 2.51406C19.4 2.7474 19.5 3.0224 19.5 3.33906V21.1641C19.5 21.4474 19.4042 21.6849 19.2125 21.8766C19.0208 22.0682 18.7833 22.1641 18.5 22.1641C18.2167 22.1641 17.9792 22.0682 17.7875 21.8766C17.5958 21.6849 17.5 21.4474 17.5 21.1641V14.1641Z" fill="#555555"/>
</g>
</svg>
