<svg width="24" height="24" viewBox="0 0 24 24" fill="none" xmlns="http://www.w3.org/2000/svg">
<rect width="24" height="24" rx="12" fill="#F5F5F5"/>
<mask id="mask0_2_2693" style="mask-type:alpha" maskUnits="userSpaceOnUse" x="0" y="0" width="24" height="24">
<rect width="24" height="24" fill="#D9D9D9"/>
</mask>
<g mask="url(#mask0_2_2693)">
<path d="M10.0006 13.7296L16.0049 7.72509C16.2202 7.50993 16.4646 7.40234 16.7381 7.40234C17.0116 7.40234 17.256 7.50993 17.4714 7.72509C17.6865 7.94043 17.7941 8.18584 17.7941 8.46134C17.7941 8.73684 17.6865 8.98226 17.4714 9.19759L10.7274 15.9476C10.516 16.1588 10.2696 16.2643 9.98813 16.2643C9.70663 16.2643 9.46021 16.1588 9.24888 15.9476L6.52388 13.2226C6.30871 13.0073 6.20213 12.7618 6.20413 12.4863C6.20613 12.2108 6.31471 11.9654 6.52988 11.7501C6.74521 11.5349 6.99063 11.4273 7.26613 11.4273C7.54163 11.4273 7.78705 11.5349 8.00238 11.7501L10.0006 13.7296Z" fill="#6438C3"/>
</g>
</svg>
