<svg width="25" height="25" viewBox="0 0 25 25" fill="none" xmlns="http://www.w3.org/2000/svg">
<mask id="mask0_104_1177" style="mask-type:alpha" maskUnits="userSpaceOnUse" x="0" y="0" width="25" height="25">
<rect x="0.5" y="0.164062" width="24" height="24" fill="#D9D9D9"/>
</mask>
<g mask="url(#mask0_104_1177)">
<path d="M11.55 14.6641L15.7 12.0141C16 11.8141 16.15 11.5307 16.15 11.1641C16.15 10.7974 16 10.5141 15.7 10.3141L11.55 7.66406C11.2167 7.4474 10.875 7.43073 10.525 7.61406C10.175 7.7974 10 8.08906 10 8.48906V13.8391C10 14.2391 10.175 14.5307 10.525 14.7141C10.875 14.8974 11.2167 14.8807 11.55 14.6641ZM4.5 19.1641C3.95 19.1641 3.47917 18.9682 3.0875 18.5766C2.69583 18.1849 2.5 17.7141 2.5 17.1641V5.16406C2.5 4.61406 2.69583 4.14323 3.0875 3.75156C3.47917 3.3599 3.95 3.16406 4.5 3.16406H20.5C21.05 3.16406 21.5208 3.3599 21.9125 3.75156C22.3042 4.14323 22.5 4.61406 22.5 5.16406V17.1641C22.5 17.7141 22.3042 18.1849 21.9125 18.5766C21.5208 18.9682 21.05 19.1641 20.5 19.1641H16.5V20.1641C16.5 20.4474 16.4042 20.6849 16.2125 20.8766C16.0208 21.0682 15.7833 21.1641 15.5 21.1641H9.5C9.21667 21.1641 8.97917 21.0682 8.7875 20.8766C8.59583 20.6849 8.5 20.4474 8.5 20.1641V19.1641H4.5ZM4.5 17.1641H20.5V5.16406H4.5V17.1641Z" fill="#555555"/>
</g>
</svg>
