<svg width="25" height="25" viewBox="0 0 25 25" fill="none" xmlns="http://www.w3.org/2000/svg">
<mask id="mask0_104_1195" style="mask-type:alpha" maskUnits="userSpaceOnUse" x="0" y="0" width="25" height="25">
<rect x="0.5" y="0.164062" width="24" height="24" fill="#D9D9D9"/>
</mask>
<g mask="url(#mask0_104_1195)">
<path d="M7.5 16.1641C7.5 15.6141 7.69583 15.1432 8.0875 14.7516C8.47917 14.3599 8.95 14.1641 9.5 14.1641C10.05 14.1641 10.5208 14.3599 10.9125 14.7516C11.3042 15.1432 11.5 15.6141 11.5 16.1641C11.5 16.7141 11.3042 17.1849 10.9125 17.5766C10.5208 17.9682 10.05 18.1641 9.5 18.1641C8.95 18.1641 8.47917 17.9682 8.0875 17.5766C7.69583 17.1849 7.5 16.7141 7.5 16.1641ZM5.5 23.1641C5.21667 23.1641 4.97917 23.0682 4.7875 22.8766C4.59583 22.6849 4.5 22.4474 4.5 22.1641V14.1641C4.5 13.8807 4.59583 13.6432 4.7875 13.4516C4.97917 13.2599 5.21667 13.1641 5.5 13.1641C5.78333 13.1641 6.02083 13.2599 6.2125 13.4516C6.40417 13.6432 6.5 13.8807 6.5 14.1641V19.1641H12.5V15.1641C12.5 14.8807 12.5958 14.6432 12.7875 14.4516C12.9792 14.2599 13.2167 14.1641 13.5 14.1641H18.5C19.05 14.1641 19.5208 14.3599 19.9125 14.7516C20.3042 15.1432 20.5 15.6141 20.5 16.1641V22.1641C20.5 22.4474 20.4042 22.6849 20.2125 22.8766C20.0208 23.0682 19.7833 23.1641 19.5 23.1641C19.2167 23.1641 18.9792 23.0682 18.7875 22.8766C18.5958 22.6849 18.5 22.4474 18.5 22.1641V21.1641H6.5V22.1641C6.5 22.4474 6.40417 22.6849 6.2125 22.8766C6.02083 23.0682 5.78333 23.1641 5.5 23.1641ZM13.3 7.81406L10.65 10.4641L10.875 11.9141C10.8917 11.9974 10.8875 12.0724 10.8625 12.1391C10.8375 12.2057 10.7917 12.2724 10.725 12.3391L10.625 12.4391C10.4917 12.5724 10.3458 12.6224 10.1875 12.5891C10.0292 12.5557 9.90833 12.4641 9.825 12.3141L8.975 10.7141L7.275 9.78906C7.14167 9.7224 7.06667 9.61823 7.05 9.47656C7.03333 9.3349 7.075 9.21406 7.175 9.11406L7.375 8.91406C7.40833 8.88073 7.525 8.83906 7.725 8.78906L9.225 8.98906L11.875 6.33906L7.175 3.78906C6.99167 3.70573 6.89167 3.56406 6.875 3.36406C6.85833 3.16406 6.91667 2.9974 7.05 2.86406L7.225 2.68906C7.30833 2.60573 7.39583 2.55156 7.4875 2.52656C7.57917 2.50156 7.675 2.50573 7.775 2.53906L14.05 4.16406L16.75 1.46406C16.95 1.26406 17.1917 1.16406 17.475 1.16406C17.7583 1.16406 18 1.26406 18.2 1.46406C18.4 1.66406 18.5 1.90573 18.5 2.18906C18.5 2.4724 18.4 2.71406 18.2 2.91406L15.5 5.61406L17.1 11.8641C17.1333 11.9807 17.1375 12.0891 17.1125 12.1891C17.0875 12.2891 17.0333 12.3807 16.95 12.4641L16.85 12.5641C16.7 12.7141 16.5167 12.7724 16.3 12.7391C16.0833 12.7057 15.925 12.5974 15.825 12.4141L13.3 7.81406ZM18.5 19.1641V16.1641H14.5V19.1641H18.5Z" fill="#555555"/>
</g>
</svg>
