<svg width="1058" height="480" viewBox="0 0 1058 480" fill="none" xmlns="http://www.w3.org/2000/svg">
<g clip-path="url(#clip0_2_4125)">
<rect width="1058" height="480" rx="12" fill="#EBE2FF"/>
<mask id="mask0_2_4125" style="mask-type:luminance" maskUnits="userSpaceOnUse" x="236" y="79" width="586" height="449">
<path d="M237.245 526.973V79.7891H820.625V526.973H237.245Z" fill="white" stroke="white"/>
</mask>
<g mask="url(#mask0_2_4125)">
<path d="M720.527 145.085V108.746H335.928V124.906V220.559H271.613V342.26H351.591" stroke="#AE95E3" stroke-width="1.07" stroke-miterlimit="10" stroke-dasharray="3.2 3.2"/>
<path d="M305.02 416.094V414.156" stroke="#532EA2" stroke-width="1.07" stroke-miterlimit="10"/>
<path d="M305.02 410.498V368.398" stroke="#AE95E3" stroke-width="1.07" stroke-miterlimit="10" stroke-dasharray="3.02 3.02"/>
<path d="M305.005 366.562V364.637H303.075" stroke="#AE95E3" stroke-width="1.07" stroke-miterlimit="10"/>
<path d="M299.428 364.637H242.8" stroke="#AE95E3" stroke-width="1.07" stroke-miterlimit="10" stroke-dasharray="3.03 3.03"/>
<path d="M240.965 364.644H239.034V362.707" stroke="#AE95E3" stroke-width="1.07" stroke-miterlimit="10"/>
<path d="M239.034 358.766V297.891" stroke="#AE95E3" stroke-width="1.07" stroke-miterlimit="10" stroke-dasharray="3.24 3.24"/>
<path d="M239.034 295.918V293.98H240.965" stroke="#AE95E3" stroke-width="1.07" stroke-miterlimit="10"/>
<path d="M244.689 293.98H317.306" stroke="#AE95E3" stroke-width="1.07" stroke-miterlimit="10" stroke-dasharray="3.09 3.09"/>
<path d="M319.157 293.98H321.088V292.055" stroke="#532EA2" stroke-width="1.07" stroke-miterlimit="10"/>
<path d="M321.116 288.23V129.633" stroke="#AF98E4" stroke-width="1.07" stroke-miterlimit="10" stroke-dasharray="3.16 3.16"/>
<path d="M321.116 127.73V125.793H323.047" stroke="#532EA2" stroke-width="1.07" stroke-miterlimit="10"/>
<path d="M326.909 125.793H457.228" stroke="#AF98E4" stroke-width="1.07" stroke-miterlimit="10" stroke-dasharray="3.22 3.22"/>
<path d="M459.169 125.792H461.101V123.855" stroke="#AF98E4" stroke-width="1.07" stroke-miterlimit="10"/>
<path d="M461.115 120.031V83.7773" stroke="#AF98E4" stroke-width="1.07" stroke-miterlimit="10" stroke-dasharray="3.15 3.15"/>
<path d="M461.115 81.8664V79.9297H463.033" stroke="#AF98E4" stroke-width="1.07" stroke-miterlimit="10"/>
<path d="M466.908 79.9297H526.866" stroke="#AF98E4" stroke-width="1.07" stroke-miterlimit="10" stroke-dasharray="3.21 3.21"/>
<path d="M528.797 79.9297H530.727V81.8664" stroke="#AF98E4" stroke-width="1.07" stroke-miterlimit="10"/>
<path d="M530.727 85.8867V124.005" stroke="#AF98E4" stroke-width="1.07" stroke-miterlimit="10" stroke-dasharray="3.31 3.31"/>
<path d="M530.727 126V127.937H532.658" stroke="#532EA2" stroke-width="1.07" stroke-miterlimit="10"/>
<path d="M536.548 127.938H597.074" stroke="#AE95E3" stroke-width="1.07" stroke-miterlimit="10" stroke-dasharray="3.24 3.24"/>
<path d="M599.017 127.938H600.948V129.874" stroke="#AE95E3" stroke-width="1.07" stroke-miterlimit="10"/>
<path d="M600.962 134.305V140.938" stroke="#AE95E3" stroke-width="1.07" stroke-miterlimit="10" stroke-dasharray="3.66 3.66"/>
<path d="M600.962 143.148V145.085H602.892" stroke="#AE95E3" stroke-width="1.07" stroke-miterlimit="10"/>
<path d="M606.617 145.094H716.724" stroke="#AE95E3" stroke-width="1.07" stroke-miterlimit="10" stroke-dasharray="3.09 3.09"/>
<path d="M718.601 145.094H720.532V147.03" stroke="#AE95E3" stroke-width="1.07" stroke-miterlimit="10"/>
<path d="M720.518 150.539V169.895" stroke="#AE95E3" stroke-width="1.07" stroke-miterlimit="10" stroke-dasharray="2.91 2.91"/>
<path d="M720.518 171.648V173.585H722.437" stroke="#AE95E3" stroke-width="1.07" stroke-miterlimit="10"/>
<path d="M726.519 173.586H781.361" stroke="#AE95E3" stroke-width="1.07" stroke-miterlimit="10" stroke-dasharray="3.37 3.37"/>
<path d="M783.387 173.586H785.317V175.523" stroke="#AE95E3" stroke-width="1.07" stroke-miterlimit="10"/>
<path d="M785.305 179.43V232.34" stroke="#AE95E3" stroke-width="1.07" stroke-miterlimit="10" stroke-dasharray="3.24 3.24"/>
<path d="M785.317 234.289V236.225H783.387" stroke="#AE95E3" stroke-width="1.07" stroke-miterlimit="10"/>
<path d="M779.2 236.227H739.428" stroke="#AE95E3" stroke-width="1.07" stroke-miterlimit="10" stroke-dasharray="3.47 3.47"/>
<path d="M737.333 236.227H735.401V238.164" stroke="#AE95E3" stroke-width="1.07" stroke-miterlimit="10"/>
<path d="M735.401 241.953V383.809" stroke="#AE95E3" stroke-width="1.07" stroke-miterlimit="10" stroke-dasharray="3.13 3.13"/>
<path d="M735.401 385.691V387.629" stroke="#532EA2" stroke-width="1.07" stroke-miterlimit="10"/>
<path d="M487.354 412.457L479.39 467.885H573.967L565.015 412.457H487.354Z" fill="#8C75FF"/>
<path d="M606.841 475.875H446.55V479.87H606.841V475.875Z" fill="#8C75FF"/>
<path d="M479.395 467.879L446.55 475.867H606.829L573.973 467.879H479.395Z" fill="white"/>
<path d="M357.217 176.301H696.154C704.601 176.301 711.456 183.176 711.456 191.65V383.91H341.916V191.65C341.916 183.176 348.77 176.301 357.217 176.301Z" fill="#B5A5FF"/>
<path d="M341.916 383.906H711.456V404.145C711.456 412.581 704.625 419.433 696.214 419.433H357.156C348.746 419.433 341.916 412.581 341.916 404.145V383.906Z" fill="white"/>
<path d="M697.825 204.281C697.825 195.445 690.661 188.281 681.825 188.281H371.543C362.707 188.281 355.543 195.445 355.543 204.281V355.051C355.543 363.888 362.707 371.051 371.543 371.051H681.825C690.661 371.051 697.825 363.888 697.825 355.051V204.281Z" fill="white"/>
<path d="M533.905 400.273C533.905 404.268 530.671 407.511 526.688 407.511C522.707 407.511 519.472 404.268 519.472 400.273C519.472 396.278 522.707 393.035 526.688 393.035C530.671 393.035 533.905 396.278 533.905 400.273Z" fill="white"/>
<path d="M529.491 209.137H410.709C410.041 209.137 409.501 209.679 409.501 210.347V349.844C409.501 350.513 410.041 351.054 410.709 351.054H529.491C530.159 351.054 530.699 350.513 530.699 349.844V210.347C530.699 209.679 530.159 209.137 529.491 209.137Z" fill="#BA90F0"/>
<path d="M511.979 228.492H428.226C427.558 228.492 427.018 229.034 427.018 229.703V235.028C427.018 235.697 427.558 236.238 428.226 236.238H511.979C512.645 236.238 513.185 235.697 513.185 235.028V229.703C513.185 229.034 512.645 228.492 511.979 228.492Z" fill="white"/>
<path d="M511.979 242.68H428.226C427.558 242.68 427.018 243.221 427.018 243.89V249.203C427.018 249.872 427.558 250.414 428.226 250.414H511.979C512.645 250.414 513.185 249.872 513.185 249.203V243.89C513.185 243.221 512.645 242.68 511.979 242.68Z" fill="white"/>
<path d="M511.979 256.879H428.226C427.558 256.879 427.018 257.421 427.018 258.089V263.415C427.018 264.083 427.558 264.625 428.226 264.625H511.979C512.645 264.625 513.185 264.083 513.185 263.415V258.089C513.185 257.421 512.645 256.879 511.979 256.879Z" fill="white"/>
<path d="M511.979 271.062H428.226C427.558 271.062 427.018 271.604 427.018 272.273V277.598C427.018 278.267 427.558 278.809 428.226 278.809H511.979C512.645 278.809 513.185 278.267 513.185 277.598V272.273C513.185 271.604 512.645 271.062 511.979 271.062Z" fill="white"/>
<path d="M511.979 285.254H428.226C427.558 285.254 427.018 285.796 427.018 286.464V291.777C427.018 292.446 427.558 292.988 428.226 292.988H511.979C512.645 292.988 513.185 292.446 513.185 291.777V286.464C513.185 285.796 512.645 285.254 511.979 285.254Z" fill="white"/>
<path d="M511.979 299.453H428.226C427.558 299.453 427.018 299.997 427.018 300.664V305.991C427.018 306.659 427.558 307.201 428.226 307.201H511.979C512.645 307.201 513.185 306.659 513.185 305.991V300.664C513.185 299.997 512.645 299.453 511.979 299.453Z" fill="white"/>
<path d="M511.979 313.645H428.226C427.558 313.645 427.018 314.188 427.018 314.855V320.182C427.018 320.851 427.558 321.392 428.226 321.392H511.979C512.645 321.392 513.185 320.851 513.185 320.182V314.855C513.185 314.188 512.645 313.645 511.979 313.645Z" fill="white"/>
<path d="M511.979 327.844H428.226C427.558 327.844 427.018 328.385 427.018 329.054V334.381C427.018 335.05 427.558 335.592 428.226 335.592H511.979C512.645 335.592 513.185 335.05 513.185 334.381V329.054C513.185 328.385 512.645 327.844 511.979 327.844Z" fill="white"/>
<path d="M612.295 260.617V248.246H604.62C603.969 245.437 602.883 242.787 601.435 240.401L606.901 234.919L598.19 226.179L592.76 231.626C590.382 230.137 587.763 229.024 584.977 228.346V220.586H572.645V228.284C569.845 228.939 567.202 230.015 564.826 231.48L559.36 225.998L550.647 234.737L556.078 240.184C554.593 242.568 553.483 245.195 552.806 247.992H545.072V260.363H552.746C553.398 263.171 554.484 265.823 555.933 268.206L550.465 273.69L559.178 282.43L564.609 276.983C566.973 278.472 569.603 279.586 572.391 280.263V288.022H584.723V280.323C587.523 279.67 590.164 278.58 592.542 277.128L598.008 282.612L606.721 273.872L601.291 268.425C602.775 266.04 603.884 263.412 604.56 260.617H612.295ZM578.678 266.174C572.137 266.174 566.828 260.847 566.828 254.286C566.828 247.726 572.137 242.399 578.678 242.399C585.217 242.399 590.526 247.726 590.526 254.286C590.526 260.847 585.217 266.174 578.678 266.174Z" fill="#6750A3"/>
<path d="M658.267 298.548V288.817H652.222C651.715 286.6 650.857 284.518 649.711 282.63L654.019 278.309L647.153 271.422L642.882 275.706C641.011 274.533 638.949 273.661 636.752 273.116V267.004H627.051V273.069C624.842 273.577 622.766 274.436 620.884 275.586L616.576 271.265L609.71 278.152L613.983 282.438C612.812 284.314 611.944 286.383 611.4 288.587H605.307V298.319H611.352C611.859 300.535 612.715 302.615 613.861 304.505L609.553 308.826L616.419 315.713L620.692 311.429C622.561 312.602 624.625 313.486 626.821 314.019V320.131H636.523V314.067C638.732 313.559 640.806 312.699 642.676 311.549L646.983 315.87L653.85 308.983L649.579 304.697C650.749 302.822 651.618 300.752 652.16 298.548H658.254H658.267ZM631.804 302.931C626.652 302.931 622.477 298.742 622.477 293.574C622.477 288.406 626.652 284.217 631.804 284.217C636.957 284.217 641.133 288.406 641.133 293.574C641.133 298.742 636.957 302.931 631.804 302.931Z" fill="#6750A3"/>
<path d="M605.147 321.068V314.157H600.862C600.5 312.583 599.898 311.106 599.089 309.776L602.142 306.712L597.267 301.823L594.238 304.862C592.91 304.025 591.45 303.408 589.894 303.021V298.688H583.004V302.984C581.436 303.348 579.963 303.953 578.636 304.777L575.583 301.714L570.709 306.603L573.737 309.642C572.903 310.974 572.289 312.438 571.902 314H567.582V320.911H571.867C572.229 322.485 572.831 323.962 573.652 325.294L570.599 328.356L575.474 333.247L578.503 330.209C579.831 331.043 581.291 331.661 582.847 332.049V336.381H589.737V332.084C591.305 331.721 592.777 331.116 594.105 330.293L597.158 333.355L602.032 328.465L599.004 325.427C599.836 324.095 600.452 322.63 600.839 321.068H605.157H605.147ZM586.37 324.179C582.714 324.179 579.759 321.203 579.759 317.547C579.759 313.89 582.726 310.901 586.37 310.901C590.014 310.901 592.982 313.878 592.982 317.547C592.982 321.215 590.014 324.179 586.37 324.179Z" fill="#6750A3"/>
<path opacity="0.24" d="M517.991 188.281L444.397 371.041H485.135L558.064 188.281H517.991Z" fill="white"/>
<path opacity="0.24" d="M583.381 188.281L514.686 371.041H531.048L600.95 188.281H583.381Z" fill="white"/>
<path d="M644.833 149.703C644.422 149.703 644 149.606 643.603 149.413C641.032 148.154 638.509 149.352 638.401 149.413C637.001 150.091 635.312 149.521 634.625 148.129C633.937 146.737 634.48 145.055 635.856 144.353C636.06 144.244 640.935 141.811 646.076 144.329C647.474 145.018 648.066 146.713 647.379 148.117C646.885 149.122 645.882 149.715 644.833 149.715V149.703Z" fill="#925FFF"/>
<path d="M651.69 142.009C651.134 142.009 650.567 141.839 650.073 141.5C640.986 135.109 632.275 141.391 632.19 141.464C630.935 142.396 629.161 142.13 628.232 140.859C627.303 139.6 627.568 137.82 628.836 136.888C632.974 133.826 643.412 129.88 653.318 136.852C654.598 137.748 654.912 139.515 654.006 140.798C653.452 141.585 652.582 142.009 651.69 142.009Z" fill="#925FFF"/>
<path d="M658.556 134.805C657.952 134.805 657.349 134.612 656.83 134.212C639.997 121.151 626.265 133.51 625.686 134.043C624.54 135.096 622.754 135.035 621.693 133.885C620.63 132.735 620.692 130.956 621.825 129.891C622.007 129.721 639.575 113.67 660.281 129.721C661.512 130.677 661.741 132.457 660.788 133.704C660.233 134.43 659.4 134.805 658.544 134.805H658.556Z" fill="#925FFF"/>
<path d="M752.472 446.257H755.719C773.854 445.507 788.033 430.678 788.033 412.449C788.033 394.218 773.854 379.404 755.719 378.629H752.509C752.509 378.629 752.484 378.629 752.472 378.629C734.554 379.584 720.532 394.4 720.532 412.437C720.532 430.474 734.554 445.29 752.472 446.247V446.257ZM732.093 434.334C734.227 432.773 736.545 431.442 738.994 430.352C741.31 435.218 744.545 439.515 748.6 443.159C742.361 441.998 736.568 438.91 732.093 434.334ZM752.968 443.365C748.032 439.649 744.05 434.82 741.42 429.371C745.124 428.028 748.997 427.253 752.968 427.072V443.365ZM752.968 424.457C748.635 424.638 744.4 425.485 740.357 426.975C738.825 423.137 737.921 419.07 737.666 414.87H752.968V424.457ZM752.968 412.243H737.583C737.606 407.959 738.307 403.745 739.683 399.727C743.918 401.398 748.383 402.353 752.968 402.547V412.243ZM759.507 443.243C763.755 439.467 767.097 434.977 769.438 429.891C772.069 430.957 774.555 432.312 776.859 433.936C772.214 438.862 766.109 442.118 759.507 443.243ZM778.585 431.95C776.062 430.158 773.324 428.658 770.439 427.47C771.984 423.453 772.89 419.216 773.13 414.845H785.307C784.835 421.116 782.507 427.012 778.573 431.938L778.585 431.95ZM779.562 394.243C783.35 399.521 785.367 405.719 785.414 412.23H773.215C773.192 407.777 772.479 403.406 771.08 399.207C774.083 397.899 776.931 396.228 779.562 394.243ZM777.944 392.186C775.533 394.014 772.925 395.538 770.175 396.749C767.846 391.012 764.177 385.842 759.495 381.655C766.675 382.876 773.167 386.569 777.944 392.173V392.186ZM755.574 381.8C761.015 385.999 765.203 391.471 767.736 397.717C763.828 399.122 759.737 399.872 755.574 399.969V381.812V381.8ZM755.574 402.584C760.039 402.499 764.431 401.687 768.642 400.175C769.92 404.061 770.572 408.116 770.596 412.243H755.574V402.596V402.584ZM755.574 414.858H770.512C770.272 418.9 769.426 422.835 767.978 426.563C763.985 425.219 759.809 424.506 755.561 424.421V414.858H755.574ZM755.574 427.035C759.472 427.119 763.296 427.762 766.965 428.972C764.394 434.456 760.473 439.298 755.574 443.086V427.035ZM752.968 381.533V399.932C748.72 399.739 744.569 398.843 740.624 397.281C743.242 391.085 747.49 385.66 752.968 381.533ZM748.6 381.74C744.11 385.77 740.551 390.746 738.235 396.24C735.664 395.018 733.239 393.505 730.995 391.737C735.627 386.509 741.807 382.998 748.6 381.74ZM729.34 393.772C731.803 395.72 734.469 397.366 737.282 398.698C735.772 403.044 735 407.595 734.976 412.267H723.138C723.175 405.55 725.322 399.17 729.34 393.782V393.772ZM723.235 414.882H735.061C735.315 419.408 736.279 423.816 737.945 427.968C735.242 429.166 732.684 430.655 730.331 432.397C726.18 427.386 723.73 421.358 723.235 414.895V414.882Z" fill="#8E7EEA"/>
<path d="M377.813 280.09H284.502C283.836 280.09 283.296 280.632 283.296 281.3V299.131C283.296 299.799 283.836 300.341 284.502 300.341H377.813C378.48 300.341 379.02 299.799 379.02 299.131V281.3C379.02 280.632 378.48 280.09 377.813 280.09Z" fill="#8E7EEA"/>
<mask id="mask1_2_4125" style="mask-type:luminance" maskUnits="userSpaceOnUse" x="287" y="282" width="13" height="14">
<path d="M298.444 284.712C303.234 291.31 295.922 298.645 289.346 293.84C289.237 293.755 289.129 293.646 289.044 293.536C284.254 286.939 291.566 279.604 298.142 284.41C298.251 284.495 298.36 284.603 298.444 284.712Z" fill="white"/>
</mask>
<g mask="url(#mask1_2_4125)">
<path d="M299.993 289.122C299.993 292.584 297.194 295.381 293.755 295.381C290.316 295.381 287.517 292.572 287.517 289.122C287.517 285.672 290.316 282.863 293.755 282.863C297.194 282.863 299.993 285.672 299.993 289.122Z" fill="white"/>
<path d="M295.929 286.835C295.929 288.046 294.952 289.013 293.757 289.013C292.563 289.013 291.585 288.034 291.585 286.835C291.585 285.636 292.563 284.656 293.757 284.656C294.952 284.656 295.929 285.636 295.929 286.835Z" fill="#8E7EEA"/>
<path d="M293.054 289.168H294.453C296.444 289.168 298.061 290.791 298.061 292.789V295.464H289.434V292.789C289.434 290.791 291.051 289.168 293.042 289.168H293.054Z" fill="#8E7EEA"/>
</g>
<path d="M366.759 285.246H303.047V286.213H366.759V285.246Z" fill="white"/>
<path d="M366.759 288.16H303.047V289.129H366.759V288.16Z" fill="white"/>
<path d="M366.759 291.07H303.047V292.039H366.759V291.07Z" fill="white"/>
<path d="M366.759 293.973H303.047V294.941H366.759V293.973Z" fill="white"/>
<path d="M377.813 307.379H284.502C283.836 307.379 283.296 307.921 283.296 308.589V326.42C283.296 327.088 283.836 327.63 284.502 327.63H377.813C378.48 327.63 379.02 327.088 379.02 326.42V308.589C379.02 307.921 378.48 307.379 377.813 307.379Z" fill="#8E7EEA"/>
<mask id="mask2_2_4125" style="mask-type:luminance" maskUnits="userSpaceOnUse" x="287" y="310" width="13" height="13">
<path d="M299.993 316.407C299.993 319.869 297.194 322.664 293.755 322.664C290.316 322.664 287.517 319.857 287.517 316.407C287.517 312.956 290.316 310.148 293.755 310.148C297.194 310.148 299.993 312.956 299.993 316.407Z" fill="white"/>
</mask>
<g mask="url(#mask2_2_4125)">
<path d="M299.993 316.407C299.993 319.869 297.194 322.664 293.755 322.664C290.316 322.664 287.517 319.857 287.517 316.407C287.517 312.956 290.316 310.148 293.755 310.148C297.194 310.148 299.993 312.956 299.993 316.407Z" fill="white"/>
<path d="M295.929 314.124C295.929 315.335 294.952 316.304 293.757 316.304C292.563 316.304 291.585 315.323 291.585 314.124C291.585 312.926 292.563 311.945 293.757 311.945C294.952 311.945 295.929 312.926 295.929 314.124Z" fill="#8E7EEA"/>
<path d="M293.054 316.449H294.453C296.444 316.449 298.061 318.073 298.061 320.068V322.745H289.434V320.068C289.434 318.073 291.051 316.449 293.042 316.449H293.054Z" fill="#8E7EEA"/>
</g>
<path d="M366.759 312.547H303.047V313.516H366.759V312.547Z" fill="white"/>
<path d="M366.759 315.449H303.047V316.418H366.759V315.449Z" fill="white"/>
<path d="M366.759 318.359H303.047V319.328H366.759V318.359Z" fill="white"/>
<path d="M366.759 321.262H303.047V322.23H366.759V321.262Z" fill="white"/>
<g filter="url(#filter0_d_2_4125)">
<path d="M397.9 136.887C397.679 136.887 397.467 136.887 397.255 136.905C398.895 130.137 397.599 122.214 391.231 114.405C391.178 114.343 391.117 114.281 391.046 114.228C380.462 106.587 369.418 107.487 361.823 112.905C361.382 113.222 360.782 113.072 360.527 112.596C356.707 105.334 349.087 100.375 340.31 100.375C329.708 100.375 320.799 107.602 318.223 117.405C318.091 117.899 317.588 118.181 317.103 118.031C314.995 117.387 312.763 117.043 310.452 117.043C298.853 117.043 289.283 125.69 287.819 136.896C287.748 136.896 287.687 136.896 287.616 136.896C280.357 136.896 274.129 141.335 271.501 147.644C271.263 148.226 271.686 148.87 272.321 148.87H304.19H319.934H413.194C413.821 148.87 414.253 148.226 414.015 147.644C411.386 141.335 405.159 136.896 397.9 136.896V136.887Z" fill="white"/>
</g>
<path d="M336.337 164.888L322.535 140.883C322.203 140.294 321.353 140.294 321.021 140.883L307.219 164.888C306.886 165.477 307.306 166.207 307.981 166.207H315.801C316.283 166.207 316.677 166.602 316.677 167.086V198.6C316.677 199.083 317.071 199.479 317.553 199.479H326.021C326.503 199.479 326.897 199.083 326.897 198.6V167.086C326.897 166.602 327.291 166.207 327.772 166.207H335.593C336.267 166.207 336.688 165.477 336.355 164.888H336.337Z" fill="#8F5BFF"/>
<path d="M334.519 175.033L348.32 199.037C348.653 199.626 349.503 199.626 349.835 199.037L363.637 175.033C363.97 174.443 363.549 173.714 362.875 173.714H355.055C354.573 173.714 354.179 173.318 354.179 172.834V141.321C354.179 140.837 353.785 140.441 353.303 140.441H344.835C344.353 140.441 343.959 140.837 343.959 141.321V172.834C343.959 173.318 343.565 173.714 343.083 173.714H335.263C334.589 173.714 334.168 174.443 334.501 175.033H334.519Z" fill="#7143D2"/>
<g opacity="0.51">
<path d="M819.466 256.699C819.466 254.49 817.675 252.699 815.466 252.699H678.727C676.517 252.699 674.727 254.49 674.727 256.699V327.454C674.727 329.664 676.517 331.454 678.727 331.454H815.466C817.675 331.454 819.466 329.664 819.466 327.454V256.699Z" fill="#4F37D6"/>
<path d="M801.837 260.715H681.292V266.381H801.837V260.715Z" fill="white"/>
<path d="M765.565 269.91H681.292V275.576H765.565V269.91Z" fill="white"/>
<path d="M784.424 279.105H681.292V284.771H784.424V279.105Z" fill="white"/>
<path d="M801.837 288.312H681.292V293.978H801.837V288.312Z" fill="white"/>
<path d="M792.533 297.523H681.292V303.188H792.533V297.523Z" fill="white"/>
<path d="M780.153 306.727H681.292V312.391H780.153V306.727Z" fill="white"/>
<path d="M794.911 315.918H681.292V321.584H794.911V315.918Z" fill="white"/>
</g>
<path d="M346.997 392.234H263.026C260.494 392.234 258.441 394.295 258.441 396.834V442.034C258.441 444.575 260.494 446.634 263.026 446.634H346.997C349.53 446.634 351.583 444.575 351.583 442.034V396.834C351.583 394.295 349.53 392.234 346.997 392.234Z" fill="#B998FE"/>
<path d="M258.441 446.634L305.018 416.094L351.595 446.634H258.441Z" fill="#C6ACFF"/>
<path d="M261.123 394.391L304.261 429.13C304.707 429.481 305.335 429.481 305.769 429.13L348.907 394.391C349.8 393.676 349.293 392.234 348.147 392.234H261.883C260.749 392.234 260.242 393.676 261.123 394.391Z" fill="#9D6FFF"/>
<path d="M533.524 97.6797H508.183C505.126 97.6797 502.645 100.167 502.645 103.236V152.648C502.645 155.716 505.126 158.204 508.183 158.204H533.524C536.583 158.204 539.062 155.716 539.062 152.648V103.236C539.062 100.167 536.583 97.6797 533.524 97.6797Z" fill="#693EC4"/>
<mask id="mask3_2_4125" style="mask-type:luminance" maskUnits="userSpaceOnUse" x="505" y="100" width="32" height="52">
<path d="M531.428 100.547H510.288C507.735 100.547 505.666 102.622 505.666 105.183V146.4C505.666 148.96 507.735 151.036 510.288 151.036H531.428C533.981 151.036 536.05 148.96 536.05 146.4V105.183C536.05 102.622 533.981 100.547 531.428 100.547Z" fill="white"/>
</mask>
<g mask="url(#mask3_2_4125)">
<path d="M531.428 100.547H510.288C507.735 100.547 505.666 102.622 505.666 105.183V146.4C505.666 148.96 507.735 151.036 510.288 151.036H531.428C533.981 151.036 536.05 148.96 536.05 146.4V105.183C536.05 102.622 533.981 100.547 531.428 100.547Z" fill="#D3CDF7"/>
<path d="M499.432 139.219L533.7 93.0273H541.919L499.432 151.034V139.219Z" fill="white" fill-opacity="0.2"/>
<path d="M502.646 157.488L543.346 100.547V105.921L502.646 163.928V157.488Z" fill="white" fill-opacity="0.2"/>
</g>
<path d="M522.631 154.272C522.631 155.265 521.834 156.063 520.844 156.063C519.855 156.063 519.059 155.265 519.059 154.272C519.059 153.279 519.855 152.48 520.844 152.48C521.834 152.48 522.631 153.279 522.631 154.272Z" fill="white"/>
<path d="M580.006 111.469H531.1V148.752H580.006V111.469Z" fill="white"/>
<path d="M546.242 139.692L536.966 130.375L546.389 120.922L546.936 121.467L538.668 129.751L538.045 130.375L538.668 130.998L546.795 139.139L546.242 139.692Z" fill="#A57BFF" stroke="#532EA2"/>
<path d="M572.04 129.605L563.925 121.464L564.466 120.922L573.752 130.228L564.323 139.688L563.779 139.139L572.04 130.85L572.661 130.228L572.04 129.605Z" fill="#A57BFF" stroke="#532EA2"/>
<path d="M551.493 139.087L558.53 122.055L559.24 122.35L552.204 139.383L551.493 139.087Z" fill="#A57BFF" stroke="#532EA2"/>
<path d="M580.006 107.133H531.1V111.479H580.006V107.133Z" fill="#6750A3"/>
</g>
</g>
<defs>
<filter id="filter0_d_2_4125" x="221.434" y="50.375" width="242.648" height="148.496" filterUnits="userSpaceOnUse" color-interpolation-filters="sRGB">
<feFlood flood-opacity="0" result="BackgroundImageFix"/>
<feColorMatrix in="SourceAlpha" type="matrix" values="0 0 0 0 0 0 0 0 0 0 0 0 0 0 0 0 0 0 127 0" result="hardAlpha"/>
<feOffset/>
<feGaussianBlur stdDeviation="25"/>
<feComposite in2="hardAlpha" operator="out"/>
<feColorMatrix type="matrix" values="0 0 0 0 0.853677 0 0 0 0 0.78482 0 0 0 0 1 0 0 0 0.17 0"/>
<feBlend mode="normal" in2="BackgroundImageFix" result="effect1_dropShadow_2_4125"/>
<feBlend mode="normal" in="SourceGraphic" in2="effect1_dropShadow_2_4125" result="shape"/>
</filter>
<clipPath id="clip0_2_4125">
<rect width="1058" height="480" rx="12" fill="white"/>
</clipPath>
</defs>
</svg>
